<?xml version="1.0" encoding="utf-8"?>
<svg version="1.1" xmlns:xlink="http://www.w3.org/1999/xlink" width="12px" height="12px" viewBox="294 366.5  12 12" xmlns="http://www.w3.org/2000/svg">
  <path d="M 300 366.5  C 303.36 366.5  306 369.14  306 372.5  C 306 375.86  303.36 378.5  300 378.5  C 296.64 378.5  294 375.86  294 372.5  C 294 369.14  296.64 366.5  300 366.5  Z " fill-rule="nonzero" fill="#ffffff" stroke="none" />
  <path d="M 300 367  C 303.08 367  305.5 369.42  305.5 372.5  C 305.5 375.58  303.08 378  300 378  C 296.92 378  294.5 375.58  294.5 372.5  C 294.5 369.42  296.92 367  300 367  Z " stroke-width="1" stroke="#797979" fill="none" />
  <path d="M 300 375.5  C 298.32 375.5  297 374.18  297 372.5  C 297 370.82  298.32 369.5  300 369.5  C 301.68 369.5  303 370.82  303 372.5  C 303 374.18  301.68 375.5  300 375.5  " fill-rule="nonzero" fill="#797979" stroke="none" />
</svg>