<?xml version="1.0" encoding="utf-8"?>
<svg version="1.1" xmlns:xlink="http://www.w3.org/1999/xlink" width="12px" height="12px" viewBox="221 907.5  12 12" xmlns="http://www.w3.org/2000/svg">
  <path d="M 227 907.5  C 230.36 907.5  233 910.14  233 913.5  C 233 916.86  230.36 919.5  227 919.5  C 223.64 919.5  221 916.86  221 913.5  C 221 910.14  223.64 907.5  227 907.5  Z " fill-rule="nonzero" fill="#ffffff" stroke="none" />
  <path d="M 227 908  C 230.08 908  232.5 910.42  232.5 913.5  C 232.5 916.58  230.08 919  227 919  C 223.92 919  221.5 916.58  221.5 913.5  C 221.5 910.42  223.92 908  227 908  Z " stroke-width="1" stroke="#797979" fill="none" />
  <path d="M 227 916.5  C 225.32 916.5  224 915.18  224 913.5  C 224 911.82  225.32 910.5  227 910.5  C 228.68 910.5  230 911.82  230 913.5  C 230 915.18  228.68 916.5  227 916.5  " fill-rule="nonzero" fill="#797979" stroke="none" />
</svg>