<?xml version="1.0" encoding="utf-8"?>
<svg version="1.1" xmlns:xlink="http://www.w3.org/1999/xlink" width="15px" height="11px" xmlns="http://www.w3.org/2000/svg">
  <g transform="matrix(1 0 0 1 -1335 -31 )">
    <path d="M 14.7216796875 0.362847222222223  C 14.9072265625 0.604745370370368  15 0.891203703703701  15 1.22222222222222  C 15 1.55324074074074  14.9072265625 1.83969907407407  14.7216796875 2.08159722222222  L 8.1591796875 10.6371527777778  C 7.9736328125 10.8790509259259  7.75390625 11  7.5 11  C 7.24609375 11  7.0263671875 10.8790509259259  6.8408203125 10.6371527777778  L 0.2783203125 2.08159722222222  C 0.0927734375 1.83969907407407  0 1.55324074074074  0 1.22222222222222  C 0 0.891203703703701  0.0927734375 0.604745370370368  0.2783203125 0.362847222222223  C 0.4638671875 0.120949074074073  0.68359375 0  0.9375 0  L 14.0625 0  C 14.31640625 0  14.5361328125 0.120949074074073  14.7216796875 0.362847222222223  Z " fill-rule="nonzero" fill="#ffffff" stroke="none" transform="matrix(1 0 0 1 1335 31 )" />
  </g>
</svg>