<?xml version="1.0" encoding="utf-8"?>
<svg version="1.1" xmlns:xlink="http://www.w3.org/1999/xlink" width="29px" height="26px" xmlns="http://www.w3.org/2000/svg">
  <g transform="matrix(1 0 0 1 -946 -295 )">
    <path d="M 6.69230769230769 19  L 6.69230769230769 23.8333333333333  L 22.3076923076923 23.8333333333333  L 22.3076923076923 19  L 6.69230769230769 19  Z M 7 2.16666666666667  L 7 13  L 22.3076923076923 13  L 22.3076923076923 6.5  L 19.5192307692308 6.5  C 19.0544871794872 6.5  18.6594551282051 6.34201388888889  18.3341346153846 6.02604166666667  C 18.0088141025641 5.71006944444444  17.8461538461538 5.32638888888889  17.8461538461538 4.875  L 17.8461538461538 2.16666666666667  L 7 2.16666666666667  Z M 26.4381009615385 14.8450520833333  C 26.6588541666667 14.6306423611111  26.7692307692308 14.3767361111111  26.7692307692308 14.0833333333333  C 26.7692307692308 13.7899305555556  26.6588541666667 13.5360243055556  26.4381009615385 13.3216145833333  C 26.2173477564103 13.1072048611111  25.9559294871795 13  25.6538461538462 13  C 25.3517628205128 13  25.0903445512821 13.1072048611111  24.8695913461538 13.3216145833333  C 24.6488381410256 13.5360243055556  24.5384615384615 13.7899305555556  24.5384615384615 14.0833333333333  C 24.5384615384615 14.3767361111111  24.6488381410256 14.6306423611111  24.8695913461538 14.8450520833333  C 25.0903445512821 15.0594618055556  25.3517628205128 15.1666666666667  25.6538461538462 15.1666666666667  C 25.9559294871795 15.1666666666667  26.2173477564103 15.0594618055556  26.4381009615385 14.8450520833333  Z M 28.0153245192308 11.7897135416667  C 28.6717748397436 12.4273003472222  29 13.1918402777778  29 14.0833333333333  L 29 21.125  C 29 21.2717013888889  28.9448116987179 21.3986545138889  28.8344350961538 21.505859375  C 28.7240584935897 21.6130642361111  28.5933493589744 21.6666666666667  28.4423076923077 21.6666666666667  L 24.5384615384615 21.6666666666667  L 24.5384615384615 24.375  C 24.5384615384615 24.8263888888889  24.3758012820513 25.2100694444444  24.0504807692308 25.5260416666667  C 23.7251602564103 25.8420138888889  23.3301282051282 26  22.8653846153846 26  L 6.13461538461538 26  C 5.6698717948718 26  5.27483974358974 25.8420138888889  4.94951923076923 25.5260416666667  C 4.62419871794872 25.2100694444444  4.46153846153846 24.8263888888889  4.46153846153846 24.375  L 4.46153846153846 21.6666666666667  L 0.557692307692308 21.6666666666667  C 0.406650641025641 21.6666666666667  0.275941506410256 21.6130642361111  0.165564903846154 21.505859375  C 0.0551883012820513 21.3986545138889  0 21.2717013888889  0 21.125  L 0 14.0833333333333  C 0 13.1918402777778  0.32822516025641 12.4273003472222  0.984675480769231 11.7897135416667  C 1.64112580128205 11.1521267361111  2.42828525641026 10.8333333333333  3.34615384615385 10.8333333333333  L 4.46153846153846 10.8333333333333  L 4.46153846153846 1.625  C 4.46153846153846 1.17361111111111  4.62419871794872 0.789930555555552  4.94951923076923 0.473958333333332  C 5.27483974358974 0.15798611111111  5.6698717948718 0  6.13461538461538 0  L 17.8461538461538 0  C 18.3108974358974 0  18.8221153846154 0.11284722222222  19.3798076923077 0.338541666666668  C 19.9375 0.56423611111111  20.3790064102564 0.835069444444442  20.7043269230769 1.15104166666667  L 23.3533653846154 3.72395833333333  C 23.6786858974359 4.03993055555555  23.9575320512821 4.46875  24.1899038461538 5.01041666666667  C 24.4222756410256 5.55208333333333  24.5384615384615 6.04861111111111  24.5384615384615 6.5  L 24.5384615384615 10.8333333333333  L 25.6538461538462 10.8333333333333  C 26.5717147435897 10.8333333333333  27.3588741987179 11.1521267361111  28.0153245192308 11.7897135416667  Z " fill-rule="nonzero" fill="#aaaaaa" stroke="none" transform="matrix(1 0 0 1 946 295 )" />
  </g>
</svg>